<?xml version="1.0" encoding="UTF-8"?>
<!-- Generator: Adobe Illustrator 21.0.0, SVG Export Plug-In . SVG Version: 6.00 Build 0)  -->
<svg version="1.1" id="Layer_1" xmlns="http://www.w3.org/2000/svg" xmlns:xlink="http://www.w3.org/1999/xlink" x="0px" y="0px" viewBox="0 0 200 200" style="enable-background:new 0 0 200 200;" xml:space="preserve">
<style type="text/css">
	.st0{fill:url(#SVGID_1_);}
	.st1{fill:url(#SVGID_2_);}
</style>
<linearGradient id="SVGID_1_" gradientUnits="userSpaceOnUse" x1="363.6496" y1="-110.1013" x2="363.6496" y2="18.7719" gradientTransform="matrix(1 0 0 -1 -251 21)">
	<stop offset="0" style="stop-color:#0179ED"/>
	<stop offset="1" style="stop-color:#01B7F5"/>
</linearGradient>
<path class="st0" d="M33.3,28c0-0.7,0.7-0.7,0.7-0.7C49.3,13.3,70,4,92,2h0.7c1.3,0,2,0,3.3,0c1.3,0,2,0,3.3,0c0,0,0,0,0.7,0  c44,0,81.3,28.7,93.4,68.7l-68.7,54c0,0-4.7,3.3-6,4.7c-2,2-4,0.7-4-2c0.7-2,1.3-6.7,1.3-6.7l8.7-42.7c-46,9.3-80.7,13.3-89.4-28.7  c0-0.7-1.3-6-2.7-13.3c0-1.3-0.7-3.3-0.7-4.7C32.6,30,32.6,28.7,33.3,28z"/>
<linearGradient id="SVGID_2_" gradientUnits="userSpaceOnUse" x1="294.5397" y1="324.0893" x2="294.5397" y2="347.9402" gradientTransform="matrix(5.9524 0 0 5.9524 -1653.2373 -1873.9568)">
	<stop offset="5.100000e-03" style="stop-color:#01B7F5"/>
	<stop offset="1" style="stop-color:#0179ED"/>
</linearGradient>
<path class="st1" d="M198,100c0,13.3-2.7,26.7-8,38c0,0.7-0.7,1.3-0.7,2l0,0C174,174,140,197.4,100,197.4c-54,0-98-44-98-98  C2,84,5.3,69.3,12,56c0.7,4,2,7.3,2,9.3C24.6,120,82.6,114,92.6,112l-15.3,74.7l-0.7,2c-0.7,2.7,1.3,3.3,4,1.3c0.7,0,2-1.3,2-1.3  L197.3,98C198,99.4,198,99.4,198,100z"/>
</svg>